<?xml version="1.0" standalone="no"?>
<!DOCTYPE svg PUBLIC "-//W3C//DTD SVG 20010904//EN"
 "http://www.w3.org/TR/2001/REC-SVG-20010904/DTD/svg10.dtd">
<svg version="1.0" xmlns="http://www.w3.org/2000/svg"
 width="750.000000pt" height="634.000000pt" viewBox="0 0 750.000000 634.000000"
 preserveAspectRatio="xMidYMid meet">

<g transform="translate(0.000000,634.000000) scale(0.100000,-0.100000)"
fill="#000000" stroke="none">
<path d="M3505 5791 c-11 -5 -60 -11 -110 -15 -256 -20 -583 -110 -838 -229
l-108 -51 4 -640 c3 -566 5 -648 20 -705 10 -36 16 -70 13 -77 -2 -6 -18 -14
-35 -17 -38 -8 -38 9 -8 -362 l22 -270 108 -22 c60 -12 186 -33 281 -47 l172
-24 90 -67 c178 -134 497 -309 559 -309 63 1 382 177 559 309 l90 66 165 25
c191 28 383 63 392 73 4 3 10 53 13 111 4 58 13 184 21 280 20 240 21 229 -16
237 -17 3 -33 11 -35 17 -3 7 3 41 13 77 15 57 17 139 20 705 l4 640 -98 46
c-245 116 -506 191 -778 224 -71 8 -149 19 -173 24 -51 12 -319 12 -347 1z
m500 -125 c256 -35 526 -111 723 -202 l73 -33 -4 -588 c-4 -628 -6 -648 -58
-789 -22 -57 -26 -60 -99 -70 l-50 -7 25 56 c13 31 34 91 46 134 22 76 23 95
26 639 l4 561 -110 42 c-583 225 -1225 226 -1803 3 l-119 -45 4 -561 c4 -612
3 -601 66 -755 l30 -73 -50 6 c-85 11 -83 9 -126 165 l-27 96 -4 593 -3 593
73 33 c230 107 572 192 878 220 88 8 397 -3 505 -18z m-366 -307 c-44 -115
-13 -248 107 -450 31 -52 67 -116 81 -143 l24 -48 25 33 c43 58 57 111 52 191
-3 40 -9 82 -13 93 -18 45 37 -37 67 -100 79 -170 39 -304 -147 -490 -78 -78
-211 -182 -221 -173 -2 3 2 18 11 34 32 61 12 132 -85 304 -146 256 -171 329
-150 434 19 97 73 189 172 291 48 49 89 87 92 84 3 -3 -4 -30 -15 -60z m411
-1277 l0 -48 -71 -11 c-81 -12 -115 -33 -144 -86 l-20 -37 -141 0 -140 0 -18
40 c-22 50 -69 76 -154 86 l-62 7 0 48 0 49 375 0 375 0 0 -48z m-1377 -177
c534 -101 1074 -121 1617 -60 111 13 427 65 531 87 15 3 13 -91 -5 -301 l-11
-135 -125 -23 c-308 -57 -622 -83 -1005 -83 -383 0 -697 26 -1005 83 l-125 23
-12 160 c-6 87 -14 188 -17 223 -6 55 -5 63 9 58 8 -4 75 -18 148 -32z m882
-666 l121 -63 118 62 c114 61 120 63 217 70 54 4 99 4 99 1 0 -13 -192 -129
-316 -191 l-121 -60 -119 60 c-126 65 -314 179 -314 190 0 4 44 4 98 0 94 -6
101 -8 217 -69z"/>
<path d="M4354 3760 c-17 -4 -44 -17 -61 -30 -27 -19 -30 -25 -20 -41 13 -21
32 -25 42 -9 17 27 25 2 25 -75 l0 -85 30 0 30 0 0 119 c0 66 -3 122 -7 124
-5 2 -22 1 -39 -3z"/>
<path d="M2978 3724 c-31 -22 -36 -30 -27 -45 11 -21 34 -25 44 -9 17 27 25 2
25 -75 0 -84 0 -85 25 -85 l25 0 0 120 0 120 -28 0 c-15 0 -44 -12 -64 -26z"/>
<path d="M3410 3700 c-23 -23 -26 -62 -6 -82 11 -12 11 -18 -5 -37 -26 -31
-24 -57 6 -86 28 -29 97 -34 132 -10 31 22 38 63 15 94 -16 22 -17 28 -6 39
20 19 17 59 -6 82 -14 14 -33 20 -65 20 -32 0 -51 -6 -65 -20z m85 -50 c0 -16
-6 -26 -18 -28 -19 -4 -32 20 -23 44 9 25 41 13 41 -16z m9 -92 c8 -14 7 -21
-6 -34 -30 -30 -75 9 -48 42 16 18 39 15 54 -8z"/>
<path d="M3830 3695 c0 -24 3 -25 55 -25 30 0 55 -2 55 -5 0 -3 -20 -46 -45
-95 -25 -49 -45 -92 -45 -95 0 -4 14 -5 32 -3 30 3 36 10 79 98 26 52 48 107
48 123 l1 27 -90 0 c-89 0 -90 0 -90 -25z"/>
<path d="M530 2290 c0 -27 3 -30 30 -30 50 0 88 -25 95 -63 3 -17 5 -179 3
-359 -3 -370 0 -356 -82 -365 -43 -5 -46 -8 -46 -34 l0 -29 283 0 c305 0 349
6 432 55 67 39 99 93 103 174 3 55 -1 74 -20 111 -30 55 -109 107 -180 116
-26 4 -48 10 -48 13 0 4 19 12 43 18 51 14 125 75 143 120 29 68 11 168 -39
221 -63 68 -143 82 -464 82 l-253 0 0 -30z m515 -65 c57 -29 85 -75 85 -142 0
-121 -55 -164 -217 -171 l-103 -5 0 173 0 172 98 -4 c72 -2 107 -8 137 -23z
m7 -395 c84 -24 136 -106 125 -200 -13 -113 -68 -150 -221 -150 -90 0 -99 2
-121 25 -24 24 -25 28 -25 180 l0 155 103 0 c56 0 119 -5 139 -10z"/>
<path d="M1610 2291 c0 -26 4 -29 41 -34 23 -3 51 -15 63 -27 20 -20 21 -31
24 -343 2 -205 -1 -335 -7 -358 -12 -39 -43 -59 -91 -59 -27 0 -30 -3 -30 -30
l0 -30 389 0 389 0 16 93 c9 50 19 104 22 120 5 25 3 27 -24 27 -25 0 -35 -8
-62 -50 -41 -64 -91 -107 -133 -115 -19 -4 -89 -5 -157 -3 -165 4 -160 -2
-160 204 l0 154 120 0 c67 0 130 -5 144 -11 15 -7 32 -30 45 -60 15 -36 25
-49 40 -49 20 0 21 5 21 150 l0 150 -25 0 c-20 0 -27 -6 -31 -30 -4 -16 -17
-41 -30 -55 -22 -24 -27 -25 -154 -25 l-130 0 0 171 0 170 164 -3 c190 -3 199
-7 251 -96 25 -43 35 -51 59 -52 l29 0 -7 61 c-3 34 -6 84 -6 110 l0 49 -385
0 -385 0 0 -29z"/>
<path d="M2665 2213 c-4 -60 -8 -117 -8 -128 -2 -15 5 -21 26 -23 23 -3 30 2
43 34 51 122 95 154 212 154 l82 0 0 -364 c0 -417 3 -404 -83 -413 -44 -5 -47
-8 -47 -34 l0 -29 211 0 210 0 -3 28 c-3 24 -8 28 -47 33 -31 4 -51 14 -68 33
l-23 27 0 361 0 360 94 -4 c92 -3 96 -4 129 -36 18 -18 46 -60 62 -92 25 -53
32 -60 58 -60 l29 0 -6 73 c-4 39 -9 98 -12 130 l-6 57 -423 0 -423 0 -7 -107z"/>
<path d="M3770 2291 c0 -26 3 -29 47 -34 85 -9 83 1 83 -392 0 -390 2 -379
-80 -393 -39 -7 -45 -11 -48 -35 l-3 -27 205 0 206 0 0 30 c0 27 -3 30 -30 30
-49 0 -79 20 -91 59 -5 20 -9 96 -7 171 l3 135 243 3 242 2 0 -159 c0 -185 -6
-200 -81 -210 -39 -5 -44 -9 -47 -33 l-3 -28 205 0 206 0 0 30 c0 27 -3 30
-30 30 -51 0 -79 20 -91 63 -6 25 -9 155 -7 358 3 308 4 319 24 339 12 12 40
24 63 27 37 5 41 8 41 34 l0 29 -206 0 -205 0 3 -27 c3 -24 9 -28 48 -35 75
-12 80 -26 80 -199 l0 -149 -245 0 -245 0 0 134 c0 73 5 147 11 164 11 32 48
52 95 52 20 0 24 5 24 30 l0 30 -205 0 -205 0 0 -29z"/>
<path d="M5070 2290 c0 -25 4 -30 25 -30 14 0 41 -6 60 -14 26 -11 35 -22 40
-48 3 -18 5 -180 3 -360 -3 -368 0 -353 -79 -366 -38 -6 -44 -11 -47 -35 l-3
-27 390 0 c215 0 391 1 391 3 0 2 9 53 20 113 11 60 20 112 20 117 0 4 -12 7
-27 7 -23 0 -35 -12 -67 -59 -22 -32 -57 -70 -80 -85 -38 -25 -47 -26 -168
-26 -141 0 -181 11 -192 52 -3 13 -6 87 -6 166 l0 144 136 -4 c151 -3 153 -4
180 -82 8 -23 17 -31 35 -31 l24 0 3 148 3 147 -29 0 c-25 0 -30 -5 -41 -40
-19 -63 -37 -70 -183 -70 l-128 0 0 170 0 170 149 0 c82 0 162 -5 178 -11 39
-14 77 -53 98 -100 15 -32 23 -39 46 -39 l29 0 -1 110 0 110 -390 0 -389 0 0
-30z"/>
<path d="M6150 2291 c0 -26 3 -29 47 -34 85 -9 83 1 83 -392 0 -391 2 -383
-81 -394 -39 -5 -44 -9 -47 -33 l-3 -28 384 0 384 0 17 108 c9 59 20 119 23
135 5 25 3 27 -25 27 -18 0 -32 -6 -36 -16 -19 -49 -93 -144 -128 -164 -35
-20 -50 -21 -163 -18 -114 3 -126 5 -147 26 l-23 23 0 339 c0 332 0 340 21
360 12 12 40 24 63 27 37 5 41 8 41 34 l0 29 -205 0 -205 0 0 -29z"/>
<path d="M1240 997 c0 -7 13 -18 29 -24 l30 -11 3 -160 c3 -181 9 -197 84
-239 39 -21 158 -33 166 -15 2 4 20 16 41 26 63 32 71 59 75 235 l4 153 29 11
c16 6 29 17 29 24 0 10 -23 13 -85 13 -62 0 -85 -3 -85 -13 0 -7 14 -18 30
-24 l30 -11 0 -151 0 -151 -29 -32 c-27 -31 -34 -33 -91 -33 -57 0 -64 2 -91
33 l-29 32 0 151 0 151 30 11 c17 6 30 17 30 24 0 10 -25 13 -100 13 -75 0
-100 -3 -100 -13z"/>
<path d="M1840 998 c0 -7 14 -21 30 -30 l30 -17 0 -174 c0 -179 -4 -197 -42
-197 -11 0 -18 -7 -18 -20 0 -18 7 -20 85 -20 78 0 85 2 85 20 0 13 -7 20 -19
20 -37 0 -42 22 -39 172 l3 145 155 -178 c85 -98 161 -178 168 -179 9 0 12 49
12 211 l0 211 30 11 c17 6 30 17 30 24 0 10 -23 13 -85 13 -69 0 -85 -3 -85
-15 0 -8 7 -15 15 -15 8 0 24 -9 35 -20 18 -18 20 -33 20 -145 0 -69 -3 -125
-7 -124 -5 0 -70 72 -146 160 l-137 159 -60 0 c-41 0 -60 -4 -60 -12z"/>
<path d="M2475 1000 c-8 -13 -9 -12 28 -28 l27 -12 0 -178 c0 -184 -4 -202
-42 -202 -11 0 -18 -7 -18 -20 0 -19 7 -20 100 -20 55 0 100 2 100 4 0 2 3 11
6 20 4 11 0 16 -14 16 -47 0 -52 20 -52 198 0 92 4 172 8 179 4 6 20 15 35 18
15 4 26 12 24 19 -5 15 -193 21 -202 6z"/>
<path d="M2780 996 c0 -9 8 -20 18 -25 9 -5 62 -104 116 -220 54 -116 104
-211 110 -211 6 0 49 92 96 203 47 112 95 212 108 224 13 12 21 27 17 32 -3 6
-37 11 -76 11 -55 0 -69 -3 -69 -15 0 -8 6 -15 13 -15 7 0 21 -6 31 -13 16
-12 14 -21 -34 -142 -28 -71 -56 -138 -62 -148 -8 -16 -20 4 -74 124 -36 78
-63 148 -60 156 3 7 17 15 31 19 54 13 18 29 -73 32 -76 2 -92 0 -92 -12z"/>
<path d="M3357 1003 c-13 -12 -7 -21 20 -28 15 -3 31 -12 35 -18 4 -7 8 -87 8
-179 0 -178 -5 -198 -52 -198 -14 0 -18 -5 -14 -16 3 -9 6 -18 6 -20 0 -2 85
-4 189 -4 213 0 194 -8 207 83 8 60 -6 62 -53 7 l-35 -40 -78 0 c-96 0 -102 7
-98 108 l3 67 53 3 c57 3 102 -16 102 -43 0 -8 7 -15 15 -15 12 0 15 15 15 75
0 57 -3 75 -14 75 -8 0 -17 -11 -20 -25 -7 -29 -33 -37 -102 -33 l-49 3 0 80
0 80 70 3 c92 4 109 -1 135 -43 12 -19 26 -35 31 -35 5 0 9 27 9 60 l0 60
-188 0 c-104 0 -192 -3 -195 -7z"/>
<path d="M3898 1004 c-14 -13 -8 -22 19 -29 15 -3 31 -12 35 -18 4 -7 8 -87 8
-179 0 -178 -5 -198 -52 -198 -14 0 -18 -5 -14 -16 3 -9 6 -18 6 -20 0 -2 45
-4 100 -4 93 0 100 1 100 20 0 13 -7 20 -19 20 -33 0 -51 38 -51 107 0 61 1
63 25 63 28 0 31 -3 145 -128 71 -78 76 -82 117 -82 24 0 43 2 43 4 0 2 3 11
6 20 4 10 1 16 -9 16 -8 0 -37 24 -64 52 -26 29 -64 69 -84 89 l-37 36 40 18
c97 43 104 166 11 211 -30 14 -68 19 -178 22 -77 2 -143 1 -147 -4z m261 -49
c16 -8 31 -22 35 -30 12 -32 6 -83 -13 -106 -16 -20 -28 -24 -83 -24 l-63 0
-3 74 c-2 41 -1 80 2 88 7 18 89 17 125 -2z"/>
<path d="M4543 990 c-51 -30 -68 -65 -64 -130 2 -42 32 -68 120 -105 96 -40
121 -58 121 -92 0 -55 -51 -91 -114 -79 -35 7 -96 64 -96 90 0 19 -30 29 -36
12 -4 -10 0 -83 5 -103 1 -2 20 -12 43 -23 118 -57 268 11 268 122 0 49 -31
91 -81 112 -126 54 -148 66 -159 86 -28 52 27 107 94 94 39 -7 69 -31 91 -74
23 -45 35 -36 35 24 0 54 0 54 -40 70 -57 23 -147 21 -187 -4z"/>
<path d="M4920 998 c0 -8 14 -19 30 -25 l30 -11 0 -179 c0 -185 -4 -203 -42
-203 -11 0 -18 -7 -18 -20 0 -19 7 -20 99 -20 82 0 100 3 105 16 4 9 5 18 4
18 -2 1 -16 6 -33 12 l-30 9 -3 177 c-2 150 0 178 13 192 9 9 25 16 37 16 11
0 18 5 16 13 -7 18 -208 23 -208 5z"/>
<path d="M5246 964 c-3 -26 -6 -55 -6 -65 0 -29 28 -22 45 10 25 49 43 61 91
61 l44 0 0 -186 0 -186 -30 -11 c-18 -7 -30 -19 -30 -29 0 -16 11 -18 99 -18
82 0 100 3 105 16 4 9 5 18 4 18 -2 1 -16 6 -33 12 l-30 9 -3 188 -2 187 45 0
c37 0 51 -5 70 -26 13 -14 27 -35 30 -45 4 -11 13 -19 21 -19 10 0 14 13 14
49 0 86 14 81 -220 81 l-207 0 -7 -46z"/>
<path d="M5780 995 c0 -9 6 -18 14 -21 8 -3 49 -59 90 -123 75 -117 76 -119
76 -186 0 -65 -1 -67 -30 -78 -18 -7 -30 -19 -30 -29 0 -16 11 -18 100 -18 89
0 100 2 100 18 0 10 -12 22 -30 29 -29 11 -30 13 -30 78 0 67 1 68 76 186 42
65 83 120 90 123 8 3 14 12 14 21 0 13 -12 15 -72 13 -46 -2 -73 -7 -76 -15
-2 -7 3 -13 10 -13 8 0 23 -6 33 -14 18 -13 16 -18 -35 -100 -30 -47 -57 -86
-60 -86 -6 0 -92 136 -102 163 -6 15 -2 21 22 30 52 20 27 32 -68 35 -78 2
-92 0 -92 -13z"/>
</g>
</svg>
