<?xml version="1.0" standalone="no"?>
<!DOCTYPE svg PUBLIC "-//W3C//DTD SVG 20010904//EN"
 "http://www.w3.org/TR/2001/REC-SVG-20010904/DTD/svg10.dtd">
<svg version="1.0" xmlns="http://www.w3.org/2000/svg"
 width="768.000000pt" height="544.000000pt" viewBox="0 0 768.000000 544.000000"
 preserveAspectRatio="xMidYMid meet">

<g transform="translate(0.000000,544.000000) scale(0.100000,-0.100000)"
fill="#000000" stroke="none">
<path d="M3755 5425 c-22 -8 -107 -35 -190 -61 l-150 -47 -422 -264 -423 -265
0 -39 c0 -24 5 -42 14 -45 7 -3 203 109 434 249 l421 254 133 -23 c73 -12 434
-75 801 -139 368 -64 680 -115 695 -113 23 3 27 8 30 41 2 20 2 37 0 37 -2 0
-294 97 -648 215 -354 118 -646 215 -649 214 -3 0 -24 -7 -46 -14z m15 -185
c184 -34 556 -100 825 -148 l490 -88 3 -32 c3 -30 1 -32 -20 -27 -13 3 -219
39 -458 80 -737 128 -1012 175 -1093 190 -44 8 -82 13 -85 11 -4 -1 -194 -116
-424 -255 -229 -138 -419 -251 -423 -251 -3 0 -5 14 -3 32 3 31 22 44 413 290
226 141 417 257 425 257 8 1 165 -26 350 -59z"/>
<path d="M3035 4935 c-220 -135 -402 -250 -403 -255 -3 -8 461 268 786 467 27
17 41 19 75 12 23 -4 110 -19 192 -34 83 -14 410 -70 729 -125 318 -55 583
-100 587 -100 5 0 9 5 9 10 0 6 -8 10 -18 10 -11 0 -201 32 -423 70 -222 39
-453 79 -514 90 -60 10 -189 33 -286 49 -96 17 -199 35 -228 41 -30 5 -65 10
-80 10 -16 -1 -180 -95 -426 -245z"/>
<path d="M3045 4901 l-410 -248 -3 -88 c-2 -52 1 -92 8 -99 7 -7 10 19 10 85
l0 94 68 39 c37 22 209 124 383 227 174 104 324 191 333 195 14 5 16 -5 16
-91 0 -76 -3 -100 -15 -109 -12 -9 -5 -11 32 -11 27 0 73 -3 103 -7 40 -5 33
-2 -25 10 l-80 17 -3 103 c-2 71 1 102 9 102 6 0 246 -41 532 -90 287 -50 617
-106 732 -125 116 -20 220 -38 233 -41 21 -4 22 -9 22 -108 0 -74 -4 -106 -12
-109 -8 -3 -6 -6 5 -6 15 -1 17 11 17 118 l0 118 -42 6 c-24 4 -92 15 -153 26
-60 11 -382 67 -715 126 -333 58 -612 108 -620 110 -8 2 -199 -107 -425 -244z"/>
<path d="M3506 5038 c-22 -31 -20 -64 4 -88 39 -39 90 -12 90 47 0 57 -64 84
-94 41z"/>
<path d="M3354 5004 c-9 -37 7 -79 31 -79 23 0 38 47 25 81 -13 33 -48 32 -56
-2z"/>
<path d="M3760 5000 c-37 -37 -14 -110 34 -110 50 0 76 79 38 113 -25 22 -48
21 -72 -3z"/>
<path d="M3227 4955 c-29 -28 -16 -105 18 -105 34 0 45 65 17 100 -17 21 -19
21 -35 5z"/>
<path d="M3368 4869 c-21 -11 -38 -22 -38 -24 0 -3 18 4 40 15 22 11 40 23 40
25 0 7 0 7 -42 -16z"/>
<path d="M3145 4714 c-165 -91 -344 -189 -399 -217 -69 -37 -92 -53 -77 -55
l21 -3 2 -647 3 -647 2 645 c3 644 3 645 24 663 12 9 30 17 40 17 18 0 19 -20
21 -647 l3 -648 5 660 c3 363 6 661 8 662 30 30 143 44 183 23 18 -10 19 -28
19 -630 0 -341 2 -620 4 -620 2 0 24 9 50 20 l46 21 0 204 c0 113 -3 205 -7
205 -5 -1 -19 -7 -33 -15 -32 -18 -50 -19 -50 -2 0 8 18 22 41 32 22 10 44 26
50 36 9 18 13 199 4 199 -2 0 -19 -9 -37 -20 -39 -24 -58 -25 -58 -6 0 8 21
25 48 38 l47 23 3 184 c2 145 0 182 -10 178 -7 -3 -30 -12 -50 -21 -59 -25
-50 6 12 41 l50 28 0 53 c0 28 -4 52 -9 52 -5 0 -25 -7 -44 -15 -42 -17 -50
-19 -42 -6 6 11 214 121 227 121 24 0 1 -24 -47 -47 l-55 -27 0 -58 c0 -32 2
-58 5 -58 3 0 28 11 55 25 45 23 50 24 50 8 0 -11 -19 -29 -50 -46 l-50 -28
31 -61 c17 -33 32 -58 35 -55 2 2 11 24 18 48 l14 44 1 -42 c1 -23 -4 -54 -9
-69 -8 -19 -8 -30 0 -38 5 -5 10 -24 10 -40 -1 -29 -1 -30 -15 -12 -8 11 -16
18 -18 15 -10 -13 -57 -132 -53 -136 2 -3 18 3 35 11 39 21 51 20 51 -2 0 -12
-16 -25 -50 -39 l-50 -21 0 -106 0 -106 38 16 c20 9 43 18 50 21 6 3 12 -2 12
-11 0 -9 -22 -27 -50 -41 -27 -14 -50 -29 -50 -34 0 -5 14 -38 32 -72 l32 -64
17 55 17 55 1 -47 c1 -26 -4 -59 -11 -73 -9 -19 -9 -28 0 -37 7 -7 12 -25 12
-42 0 -28 -1 -29 -14 -10 -18 24 -18 23 -55 -60 -47 -104 -43 -111 52 -71 l37
15 -7 683 c-7 757 -11 712 59 705 l33 -3 5 -670 c3 -412 8 -663 14 -651 5 11
6 287 2 676 l-7 658 25 28 c22 27 30 29 95 29 60 0 74 -3 93 -23 l23 -23 0
-681 c0 -496 3 -682 11 -685 8 -3 14 181 19 681 l7 685 35 12 c41 13 127 3
148 -18 13 -12 15 -110 15 -702 l0 -688 31 -7 c56 -11 59 -9 59 34 0 39 -1 40
-40 46 -30 5 -40 11 -40 25 0 17 5 18 40 13 l40 -7 0 187 0 186 -24 0 c-38 0
-56 10 -56 32 0 18 4 20 40 14 l40 -6 0 99 0 98 -40 7 c-34 5 -40 10 -40 30 0
22 3 24 33 19 l34 -5 6 83 c4 46 7 128 7 181 l0 98 -40 6 c-34 6 -40 10 -40
30 0 22 3 23 46 17 l45 -6 -3 59 -3 58 -42 9 c-50 10 -59 31 -10 22 61 -10
332 -54 475 -76 78 -12 142 -26 142 -32 0 -6 -22 -7 -62 -2 -111 14 -103 17
-103 -45 l0 -55 83 -14 c75 -13 82 -16 82 -37 0 -22 -2 -23 -47 -17 -27 4 -64
8 -83 8 l-35 0 -5 -169 c-3 -92 -3 -172 0 -176 3 -4 32 -11 65 -15 99 -10 105
-13 105 -41 0 -18 -4 -25 -14 -21 -8 3 -46 9 -85 13 l-72 7 3 -99 3 -99 50 -7
c115 -18 115 -18 115 -40 0 -19 -4 -20 -67 -14 -38 4 -77 8 -88 9 -19 2 -20
-5 -23 -174 -3 -203 -15 -182 111 -194 58 -6 67 -10 67 -27 0 -16 -5 -19 -22
-15 -13 3 -53 9 -90 12 l-68 7 0 -28 c0 -16 4 -34 8 -40 6 -11 124 -34 169
-34 17 0 18 30 18 672 l0 672 37 14 c43 17 120 9 143 -14 13 -14 15 -102 15
-695 0 -597 2 -679 15 -679 13 0 15 81 15 670 0 651 1 670 19 680 25 13 102
13 135 0 l26 -10 0 -685 c0 -450 3 -685 10 -685 7 0 10 233 10 680 l0 679 22
12 c13 7 18 14 13 15 -6 2 -226 40 -490 84 -264 45 -599 101 -744 125 -146 25
-272 45 -280 45 -9 0 -151 -75 -316 -166z"/>
<path d="M3643 4873 c9 -2 23 -2 30 0 6 3 -1 5 -18 5 -16 0 -22 -2 -12 -5z"/>
<path d="M3703 4863 c9 -2 23 -2 30 0 6 3 -1 5 -18 5 -16 0 -22 -2 -12 -5z"/>
<path d="M4627 4852 c-34 -38 -9 -112 38 -112 13 0 31 10 39 22 45 64 -27 146
-77 90z"/>
<path d="M3763 4853 c9 -2 23 -2 30 0 6 3 -1 5 -18 5 -16 0 -22 -2 -12 -5z"/>
<path d="M3835 4840 c17 -4 41 -8 55 -8 22 0 22 1 -5 8 -16 4 -41 8 -55 8 -22
0 -22 -1 5 -8z"/>
<path d="M3278 4819 c-21 -11 -38 -22 -38 -24 0 -3 18 4 40 15 22 11 40 23 40
25 0 7 0 7 -42 -16z"/>
<path d="M3933 4823 c9 -2 23 -2 30 0 6 3 -1 5 -18 5 -16 0 -22 -2 -12 -5z"/>
<path d="M4870 4810 c-24 -24 -26 -57 -4 -88 18 -26 56 -29 78 -6 24 24 20 80
-6 98 -30 21 -44 20 -68 -4z"/>
<path d="M4005 4810 c17 -4 44 -8 60 -8 25 0 24 2 -10 9 -51 10 -92 10 -50 -1z"/>
<path d="M4108 4793 c6 -2 18 -2 25 0 6 3 1 5 -13 5 -14 0 -19 -2 -12 -5z"/>
<path d="M4168 4783 c6 -2 18 -2 25 0 6 3 1 5 -13 5 -14 0 -19 -2 -12 -5z"/>
<path d="M3178 4764 c-38 -20 -36 -28 2 -9 17 9 30 18 30 20 0 7 -1 6 -32 -11z"/>
<path d="M4223 4773 c9 -2 23 -2 30 0 6 3 -1 5 -18 5 -16 0 -22 -2 -12 -5z"/>
<path d="M4283 4763 c9 -2 23 -2 30 0 6 3 -1 5 -18 5 -16 0 -22 -2 -12 -5z"/>
<path d="M4338 4753 c6 -2 18 -2 25 0 6 3 1 5 -13 5 -14 0 -19 -2 -12 -5z"/>
<path d="M4398 4743 c6 -2 18 -2 25 0 6 3 1 5 -13 5 -14 0 -19 -2 -12 -5z"/>
<path d="M4453 4733 c9 -2 23 -2 30 0 6 3 -1 5 -18 5 -16 0 -22 -2 -12 -5z"/>
<path d="M3094 4714 c-18 -14 -18 -15 4 -4 12 6 22 13 22 15 0 8 -5 6 -26 -11z"/>
<path d="M4513 4723 c9 -2 23 -2 30 0 6 3 -1 5 -18 5 -16 0 -22 -2 -12 -5z"/>
<path d="M2790 4694 c-14 -36 0 -78 28 -82 16 -3 23 3 28 24 16 61 -35 114
-56 58z"/>
<path d="M4573 4713 c9 -2 23 -2 30 0 6 3 -1 5 -18 5 -16 0 -22 -2 -12 -5z"/>
<path d="M4628 4703 c6 -2 18 -2 25 0 6 3 1 5 -13 5 -14 0 -19 -2 -12 -5z"/>
<path d="M4688 4693 c6 -2 18 -2 25 0 6 3 1 5 -13 5 -14 0 -19 -2 -12 -5z"/>
<path d="M4748 4683 c6 -2 18 -2 25 0 6 3 1 5 -13 5 -14 0 -19 -2 -12 -5z"/>
<path d="M3004 4664 c-18 -14 -18 -15 4 -4 12 6 22 13 22 15 0 8 -5 6 -26 -11z"/>
<path d="M3980 4620 c0 -33 1 -60 3 -60 1 0 67 -11 147 -25 80 -14 149 -25
153 -25 4 0 7 28 5 62 l-3 62 -115 18 c-63 9 -132 19 -152 22 l-38 6 0 -60z"/>
<path d="M4808 4673 c6 -2 18 -2 25 0 6 3 1 5 -13 5 -14 0 -19 -2 -12 -5z"/>
<path d="M4868 4663 c7 -3 16 -2 19 1 4 3 -2 6 -13 5 -11 0 -14 -3 -6 -6z"/>
<path d="M4918 4653 c6 -2 18 -2 25 0 6 3 1 5 -13 5 -14 0 -19 -2 -12 -5z"/>
<path d="M2674 4616 c-8 -35 4 -66 26 -66 22 0 34 31 26 66 -4 15 -14 24 -26
24 -12 0 -22 -9 -26 -24z"/>
<path d="M4011 4504 c9 -11 40 -48 69 -84 29 -36 56 -65 60 -65 3 0 35 26 70
57 44 39 60 59 50 62 -8 2 -58 12 -110 21 -52 8 -108 18 -125 22 -28 5 -29 5
-14 -13z"/>
<path d="M3970 4324 l0 -136 65 57 c36 32 65 59 65 62 0 10 -113 153 -121 153
-5 0 -9 -61 -9 -136z"/>
<path d="M4227 4362 l-59 -60 59 -78 58 -79 3 73 c2 40 2 102 0 138 l-3 65
-58 -59z"/>
<path d="M3140 4223 c0 -56 3 -104 8 -107 4 -2 17 19 28 48 l21 53 -28 54 -28
54 -1 -102z"/>
<path d="M4068 4210 c-66 -57 -67 -59 -40 -64 75 -15 224 -38 227 -34 3 3 -88
123 -113 150 -4 4 -37 -19 -74 -52z"/>
<path d="M3979 4015 c-1 -47 -2 -90 -3 -97 -1 -12 211 -56 277 -57 l27 -1 0
100 c0 55 -3 100 -7 100 -5 0 -62 9 -128 20 -180 29 -165 35 -166 -65z"/>
<path d="M4010 3846 c0 -4 27 -40 59 -82 l60 -75 63 57 c35 32 64 61 66 65 1
3 -37 11 -85 18 -48 6 -105 14 -125 17 -21 4 -38 4 -38 0z"/>
<path d="M3976 3774 c-3 -26 -6 -92 -6 -148 l0 -101 66 67 67 66 -53 74 c-29
40 -56 77 -60 81 -4 4 -10 -13 -14 -39z"/>
<path d="M4221 3720 c-37 -34 -61 -64 -58 -72 3 -7 30 -45 60 -85 l54 -72 6
141 c3 78 5 143 4 144 -1 1 -31 -24 -66 -56z"/>
<path d="M3140 3545 c0 -58 2 -105 5 -105 8 0 45 88 45 106 0 17 -38 104 -45
104 -3 0 -5 -47 -5 -105z"/>
<path d="M4056 3556 l-69 -64 29 -5 c16 -3 70 -11 119 -17 50 -6 101 -13 114
-16 25 -5 17 6 -91 128 l-33 37 -69 -63z"/>
<path d="M3970 3410 c0 -22 3 -40 8 -40 4 0 61 -7 127 -15 180 -22 175 -22
175 23 l0 39 -137 16 c-185 23 -173 25 -173 -23z"/>
<path d="M2995 3214 c-187 -79 -416 -176 -510 -216 -170 -71 -193 -83 -183
-93 2 -3 225 88 494 201 269 114 505 211 524 216 28 8 236 -15 1045 -116 556
-69 1014 -126 1017 -126 4 0 5 7 2 15 -4 8 -17 15 -29 15 -19 0 -1872 227
-1990 244 -22 3 -117 -33 -370 -140z"/>
<path d="M2831 3059 c-272 -115 -497 -211 -499 -214 -3 -3 -3 -7 0 -11 5 -5
101 35 688 283 124 53 246 105 272 115 l47 20 288 -36 c158 -20 545 -67 858
-106 314 -39 623 -77 688 -85 66 -8 133 -15 150 -14 76 1 -20 19 -263 48 -248
30 -740 90 -1396 171 -177 22 -326 40 -330 39 -5 0 -231 -95 -503 -210z"/>
<path d="M3015 3069 c-616 -260 -668 -283 -656 -287 6 -2 136 49 289 114 152
65 375 159 496 210 l219 93 231 -30 c931 -119 1680 -207 1698 -200 14 5 -24
13 -118 24 -178 21 -637 77 -1009 123 -576 70 -778 94 -799 93 -11 0 -169 -63
-351 -140z"/>
<path d="M3240 3101 c-74 -31 -295 -124 -490 -205 -335 -140 -391 -166 -362
-166 9 0 12 -36 12 -130 l0 -130 -690 0 -690 0 0 -35 0 -35 2820 0 2820 0 0
35 0 35 -705 0 -705 0 0 220 c0 161 3 220 12 220 65 0 -132 27 -918 125 -505
63 -930 116 -944 119 -15 2 -76 -18 -160 -53z m130 -39 l0 -77 -142 -57 c-79
-31 -293 -118 -477 -192 -184 -75 -336 -136 -338 -136 -2 0 -3 31 -3 68 l0 69
378 158 c207 87 422 178 477 201 55 24 101 43 103 44 1 0 2 -35 2 -78z m195
58 c223 -28 842 -107 1065 -135 107 -14 281 -36 385 -50 105 -14 198 -25 208
-25 14 0 17 -10 17 -69 0 -39 -3 -72 -7 -74 -5 -2 -168 15 -363 39 -195 23
-488 59 -650 78 -162 20 -412 50 -555 66 -143 17 -266 33 -272 35 -9 3 -13 28
-13 80 0 65 2 75 18 75 9 0 85 -9 167 -20z"/>
<path d="M445 2100 c-129 -21 -223 -68 -304 -156 -122 -130 -167 -309 -125
-497 43 -188 174 -327 364 -383 115 -34 349 -36 448 -3 41 14 55 43 72 157 9
62 10 86 1 95 -14 14 -23 4 -45 -55 -21 -57 -71 -103 -128 -118 -23 -7 -83
-10 -132 -8 -112 4 -184 35 -262 113 -93 93 -136 208 -136 363 1 112 13 174
53 253 47 94 113 141 228 161 140 24 302 -26 348 -107 13 -22 23 -52 23 -67 0
-56 32 -82 43 -35 7 25 11 246 6 251 -2 2 -42 10 -89 19 -107 21 -286 29 -365
17z"/>
<path d="M1485 2103 c-165 -22 -312 -121 -388 -260 -37 -69 -67 -191 -67 -273
0 -81 30 -204 67 -273 38 -72 145 -176 214 -209 77 -37 138 -50 244 -50 184
-1 333 71 430 207 85 118 121 268 103 427 -20 182 -117 320 -273 389 -84 37
-229 55 -330 42z m179 -102 c143 -63 236 -241 236 -449 0 -285 -102 -432 -299
-432 -63 0 -86 5 -136 29 -104 49 -166 125 -211 257 -61 182 -34 420 61 532
29 34 88 69 140 83 47 13 160 2 209 -20z"/>
<path d="M2336 2102 c-2 -4 -8 -215 -11 -467 -4 -253 -11 -476 -16 -496 -9
-37 -27 -49 -76 -49 -23 0 -40 -17 -29 -28 9 -8 343 -10 357 -1 20 12 1 26
-42 32 -23 3 -49 12 -57 21 -18 18 -28 148 -35 471 l-5 209 36 -40 c181 -199
263 -288 445 -479 115 -121 218 -224 228 -229 13 -6 23 -6 31 2 7 7 13 165 18
481 8 527 7 521 75 521 36 0 48 9 36 28 -5 8 -55 11 -176 9 -144 -2 -170 -4
-170 -17 0 -10 13 -16 41 -18 72 -5 78 -19 86 -211 3 -91 6 -242 7 -336 l1
-170 -73 80 c-39 44 -142 154 -227 245 -85 91 -213 229 -284 308 -119 132
-147 155 -160 134z"/>
<path d="M3865 2100 c-272 -40 -445 -240 -445 -517 0 -151 41 -268 126 -362
96 -107 212 -161 385 -180 103 -12 268 1 321 25 30 14 38 24 48 63 18 70 25
177 12 185 -6 4 -23 -20 -42 -58 -49 -103 -106 -131 -256 -125 -116 5 -198 42
-274 126 -81 89 -115 170 -126 303 -17 205 62 381 199 441 43 19 70 23 152 23
187 1 286 -61 304 -189 4 -26 11 -40 21 -40 12 0 17 24 23 124 5 68 6 129 3
136 -12 31 -329 63 -451 45z"/>
<path d="M4861 2095 c-248 -47 -411 -255 -411 -523 0 -253 144 -458 366 -517
77 -21 231 -21 308 0 131 35 254 132 319 252 83 155 89 392 11 544 -30 60 -92
130 -150 170 -102 70 -295 103 -443 74z m239 -106 c161 -86 243 -298 211 -545
-14 -109 -43 -183 -97 -243 -59 -66 -108 -84 -211 -79 -161 7 -269 100 -335
288 -26 72 -36 255 -18 342 26 133 100 231 199 263 75 24 177 14 251 -26z"/>
<path d="M5645 2080 c-11 -18 5 -30 39 -30 19 0 44 -9 57 -19 l24 -19 3 -339
c4 -411 -2 -537 -29 -564 -10 -10 -33 -19 -50 -19 -23 0 -30 -4 -27 -17 3 -15
23 -17 196 -18 138 0 196 3 203 11 13 16 5 20 -53 28 -34 5 -51 13 -59 28 -16
30 -25 343 -11 352 7 4 38 4 70 0 l58 -6 98 -143 c106 -156 172 -229 226 -254
34 -15 275 -23 720 -24 177 0 312 48 413 150 101 100 151 235 149 398 -2 196
-91 350 -248 429 -110 55 -153 60 -494 60 -274 1 -315 -1 -315 -14 0 -9 11
-16 30 -18 57 -5 72 -12 83 -37 14 -31 16 -783 3 -854 -5 -25 -17 -51 -27 -58
-47 -34 -160 4 -230 78 -40 43 -146 175 -233 291 l-43 58 50 55 c27 31 62 79
78 108 25 46 29 63 29 137 0 75 -3 91 -28 132 -30 52 -65 81 -129 105 -35 13
-91 17 -295 20 -163 2 -254 0 -258 -7z m428 -84 c78 -33 120 -113 119 -229 0
-64 -5 -88 -26 -132 -35 -70 -74 -90 -159 -81 -32 3 -63 8 -68 12 -10 6 -13
427 -2 437 12 12 103 7 136 -7z m1080 -1 c179 -47 294 -169 328 -351 14 -72 6
-221 -15 -289 -49 -160 -187 -243 -386 -233 -89 5 -141 23 -156 55 -4 10 -10
195 -12 412 -4 371 -3 396 14 408 24 18 155 17 227 -2z"/>
<path d="M1837 853 c-4 -3 -7 -112 -7 -241 l0 -234 -30 -11 c-16 -6 -30 -15
-30 -19 0 -4 45 -8 100 -8 98 0 130 12 69 25 -18 4 -34 16 -39 29 -10 26 -18
326 -9 326 4 0 47 -34 95 -76 189 -162 375 -306 389 -300 12 4 15 45 17 238
l3 232 23 6 c52 12 17 25 -74 28 -75 2 -95 0 -92 -10 3 -7 15 -15 29 -16 13
-2 29 -8 34 -13 10 -10 24 -349 15 -349 -3 0 -112 90 -243 200 -131 110 -239
200 -241 200 -1 0 -6 -3 -9 -7z"/>
<path d="M4870 853 c-56 -8 -71 -15 -105 -44 -29 -26 -35 -38 -35 -73 0 -60
27 -96 124 -161 122 -82 140 -115 93 -171 -49 -56 -187 -39 -204 26 -12 46
-27 38 -33 -17 -5 -46 -6 -48 -35 -45 -47 6 -104 44 -184 126 l-74 75 36 40
c20 22 41 58 48 81 11 37 10 46 -6 77 -35 63 -78 77 -250 77 -91 1 -152 -3
-154 -9 -3 -5 8 -12 25 -15 l29 -5 3 -200 c1 -110 0 -210 -3 -222 -3 -13 -16
-25 -30 -29 -51 -13 -11 -24 85 -24 100 0 140 13 76 25 -40 8 -46 22 -46 118
l0 67 53 0 52 0 94 -94 c105 -106 133 -119 240 -115 36 1 91 -1 122 -5 129
-18 234 35 246 123 9 65 -16 103 -107 164 -103 68 -130 95 -130 128 0 89 173
94 202 7 2 -6 10 -8 16 -4 16 10 16 86 0 90 -23 7 -122 13 -148 9z m-485 -73
c32 -30 46 -80 34 -124 -16 -59 -64 -82 -145 -70 l-44 6 0 110 0 110 65 -4
c50 -3 70 -9 90 -28z"/>
<path d="M5510 840 c-14 -26 -22 -80 -12 -80 5 0 17 9 27 20 16 17 31 20 112
20 l93 0 0 -169 c0 -220 -5 -259 -36 -267 -53 -14 -18 -24 80 -24 105 0 145
12 84 25 -18 4 -36 13 -40 19 -4 6 -8 102 -8 214 l0 202 84 0 c64 0 88 -4 100
-16 9 -8 16 -20 16 -25 0 -5 5 -9 10 -9 6 0 10 22 10 50 l0 49 -256 3 c-219 3
-257 1 -264 -12z"/>
<path d="M1045 840 c-6 -10 4 -16 40 -22 19 -3 20 -13 26 -168 5 -143 8 -171
27 -207 39 -76 110 -108 232 -107 71 0 93 5 135 26 99 51 114 88 115 288 0 80
4 150 8 156 4 7 15 13 25 15 10 2 19 9 20 14 1 6 -36 11 -90 13 -78 2 -93 0
-93 -13 0 -9 9 -15 25 -15 39 0 48 -36 43 -190 -6 -198 -37 -246 -166 -257
-46 -4 -65 0 -101 19 -82 42 -86 55 -86 251 0 170 0 171 23 177 13 3 24 10 25
15 3 14 -199 19 -208 5z"/>
<path d="M2595 840 c-3 -5 1 -12 9 -15 9 -3 23 -7 31 -10 23 -7 22 -416 -1
-439 -8 -9 -22 -16 -30 -16 -8 0 -12 -4 -9 -10 8 -12 215 -14 215 -1 0 4 -15
12 -32 17 -42 12 -47 37 -47 240 -1 182 3 212 33 216 11 2 21 8 21 13 0 14
-181 19 -190 5z"/>
<path d="M2855 840 c-3 -5 0 -12 7 -14 69 -19 65 -13 191 -255 67 -129 127
-236 133 -238 12 -4 74 102 184 312 82 155 95 173 128 177 15 2 27 8 27 13 0
6 -40 11 -93 13 -73 2 -93 0 -90 -10 3 -7 14 -14 26 -16 15 -2 19 -8 15 -20
-11 -32 -152 -317 -165 -335 -13 -17 -22 -1 -101 162 -48 100 -87 183 -87 186
0 2 9 5 20 7 12 2 22 8 23 13 3 14 -209 19 -218 5z"/>
<path d="M3575 840 c-6 -10 4 -16 40 -22 19 -3 20 -12 23 -203 1 -110 0 -210
-3 -222 -3 -13 -16 -25 -30 -29 -60 -15 -1 -24 156 -24 l169 0 10 26 c13 33
13 74 0 74 -6 0 -15 -11 -19 -24 -12 -30 -29 -36 -106 -36 -88 0 -95 9 -95
121 l0 89 68 0 c72 0 85 -5 96 -34 10 -29 24 -8 28 44 2 36 0 44 -12 40 -8 -2
-52 -6 -98 -8 l-83 -3 3 88 3 88 35 3 c67 7 119 -7 134 -35 15 -30 21 -24 31
35 l7 42 -176 0 c-106 0 -177 -4 -181 -10z"/>
<path d="M5195 840 c-3 -5 1 -12 9 -15 9 -3 23 -7 31 -10 23 -7 22 -416 -1
-439 -8 -9 -22 -16 -30 -16 -8 0 -12 -4 -9 -10 8 -12 215 -14 215 -1 0 4 -14
12 -32 17 -22 6 -35 18 -39 34 -9 31 -11 367 -3 397 3 12 15 23 28 25 11 2 21
8 21 13 0 14 -181 19 -190 5z"/>
<path d="M6045 840 c-3 -6 2 -13 12 -16 10 -3 29 -11 42 -17 26 -13 179 -201
198 -245 7 -15 12 -59 13 -99 0 -74 -13 -103 -46 -103 -8 0 -12 -4 -9 -10 8
-13 215 -13 215 -1 0 5 -15 13 -32 16 -18 4 -36 13 -40 19 -12 18 -9 165 4
189 21 41 159 215 181 230 12 7 35 17 50 21 51 12 17 26 -64 26 -43 0 -79 -2
-79 -5 0 -3 5 -13 11 -24 10 -15 1 -32 -61 -115 -40 -53 -77 -95 -81 -94 -10
4 -149 189 -149 199 0 4 5 11 10 14 6 4 8 11 5 16 -8 12 -172 12 -180 -1z"/>
<path d="M1020 30 l0 -30 2820 0 2820 0 0 30 0 30 -2820 0 -2820 0 0 -30z"/>
</g>
</svg>
