<?xml version="1.0" standalone="no"?>
<!DOCTYPE svg PUBLIC "-//W3C//DTD SVG 20010904//EN"
 "http://www.w3.org/TR/2001/REC-SVG-20010904/DTD/svg10.dtd">
<svg version="1.0" xmlns="http://www.w3.org/2000/svg"
 width="404.000000pt" height="108.000000pt" viewBox="0 0 404.000000 108.000000"
 preserveAspectRatio="xMidYMid meet">

<g transform="translate(0.000000,108.000000) scale(0.100000,-0.100000)"
fill="#000000" stroke="none">
<path d="M0 540 l0 -540 2020 0 2020 0 0 540 0 540 -2020 0 -2020 0 0 -540z
m1494 441 c7 -52 0 -64 -20 -36 -33 45 -45 55 -72 55 -33 0 -52 -16 -52 -45 0
-27 24 -48 70 -64 19 -6 47 -23 62 -38 23 -22 28 -35 28 -73 0 -78 -57 -121
-138 -105 -20 4 -47 8 -59 9 -21 1 -23 6 -23 54 0 57 14 68 31 25 15 -41 39
-63 66 -63 43 0 63 18 63 55 0 32 -4 37 -60 65 -81 41 -100 61 -100 108 0 69
47 103 136 100 l62 -3 6 -44z m-1044 17 c61 -32 83 -66 87 -135 5 -76 -23
-129 -87 -160 -38 -20 -60 -23 -162 -23 -72 0 -118 4 -118 10 0 6 8 10 19 10
24 0 31 35 31 165 0 117 -4 135 -31 135 -10 0 -19 5 -19 10 0 6 46 10 118 10
102 0 123 -3 162 -22z m1399 -22 c13 -16 5 -42 -15 -50 -19 -7 -54 10 -54 27
0 33 48 49 69 23z m-959 -66 c0 -27 3 -30 30 -30 20 0 30 -5 30 -15 0 -11 -11
-15 -36 -15 l-36 0 4 -66 c4 -65 17 -88 45 -77 7 3 13 0 13 -6 0 -13 -41 -31
-70 -31 -37 0 -50 27 -50 106 0 59 -3 74 -15 74 -8 0 -15 3 -15 7 0 9 82 82
93 83 4 0 7 -13 7 -30z m-156 -36 c12 -11 16 -36 16 -91 0 -60 3 -74 14 -70
22 9 28 -5 9 -25 -19 -22 -41 -23 -69 -4 -17 12 -22 12 -39 0 -28 -20 -63 -17
-75 7 -20 36 -4 67 45 91 37 18 45 27 45 50 0 23 -4 28 -24 28 -19 0 -25 -6
-28 -27 -4 -37 -43 -40 -43 -4 0 47 113 81 149 45z m379 4 c12 -10 17 -32 19
-88 3 -65 5 -75 21 -72 21 4 22 -11 1 -32 -19 -20 -48 -21 -66 -2 -12 12 -18
12 -39 0 -38 -21 -68 -17 -81 11 -15 32 8 68 63 95 31 16 40 26 37 43 -4 29
-53 32 -53 3 0 -25 -30 -45 -46 -29 -42 42 94 108 144 71z m605 -4 c31 -21 29
-54 -3 -54 -14 0 -25 4 -25 9 0 16 -31 42 -41 35 -21 -13 -29 -56 -19 -95 13
-49 47 -68 85 -51 33 15 35 15 35 -2 0 -22 -68 -49 -109 -42 -51 8 -81 45 -81
103 0 38 5 50 34 79 38 38 85 45 124 18z m142 -79 c0 -78 3 -95 15 -95 8 0 15
-4 15 -10 0 -6 -28 -10 -65 -10 -37 0 -65 4 -65 10 0 6 7 10 15 10 22 0 21
117 -1 141 -16 17 -15 19 7 27 13 5 31 12 39 15 38 14 40 9 40 -88z m202 75
c14 -11 28 -31 30 -45 5 -25 4 -25 -58 -25 -68 0 -76 -8 -54 -50 18 -34 47
-43 82 -26 17 9 33 14 35 12 9 -9 -11 -35 -41 -51 -43 -23 -98 -14 -126 22
-25 32 -27 108 -4 141 31 44 96 54 136 22z m146 8 c9 -9 15 -9 24 0 23 23 75
14 98 -15 19 -24 21 -37 17 -91 -4 -48 -2 -65 9 -69 31 -12 11 -23 -41 -23
-51 0 -69 10 -45 25 6 3 10 35 10 70 0 53 -3 66 -19 75 -34 17 -51 -12 -51
-86 0 -36 4 -64 10 -64 6 0 10 -4 10 -10 0 -5 -25 -10 -55 -10 -53 0 -72 11
-40 24 11 4 15 21 15 59 0 36 -5 59 -15 67 -22 18 -19 24 18 43 40 20 40 20
55 5z m353 -6 c14 -12 20 -25 16 -35 -9 -25 -38 -21 -62 9 -20 26 -22 26 -39
8 -14 -13 -17 -28 -13 -61 8 -70 48 -99 97 -73 28 15 35 -6 8 -24 -56 -39
-131 -28 -161 23 -21 36 -21 64 -1 107 29 60 108 83 155 46z m204 -7 c14 -13
25 -33 25 -45 0 -18 -6 -20 -60 -20 -52 0 -60 -2 -60 -19 0 -55 43 -81 93 -56
40 20 47 11 15 -21 -15 -15 -41 -28 -64 -31 -76 -10 -134 73 -104 148 29 68
109 91 155 44z m-685 -390 l0 -75 25 6 c90 23 148 -75 95 -161 -26 -42 -60
-55 -132 -52 l-58 2 0 147 c0 129 -2 148 -17 157 -21 11 -13 22 30 38 56 20
57 19 57 -62z m260 -90 c0 -140 2 -165 15 -165 8 0 15 -4 15 -10 0 -6 -28 -10
-65 -10 -37 0 -65 4 -65 10 0 6 7 10 15 10 13 0 15 22 15 135 0 126 -1 135
-21 145 -24 13 -19 21 24 37 69 25 67 31 67 -152z m803 153 c26 -1 27 -2 27
-59 0 -62 -14 -77 -30 -34 -29 75 -122 101 -172 48 -27 -29 -48 -81 -48 -117
0 -81 55 -156 113 -156 58 0 67 7 67 57 0 36 -4 46 -20 50 -44 12 -16 23 55
23 78 0 90 -6 54 -28 -18 -11 -21 -20 -16 -53 5 -36 3 -41 -25 -55 -16 -8 -60
-18 -96 -20 -57 -5 -74 -2 -112 18 -141 73 -125 280 27 328 15 5 55 7 88 4 33
-4 72 -6 88 -6z m807 -148 c0 -136 2 -160 15 -160 29 0 15 -19 -22 -29 -27 -8
-39 -7 -44 1 -6 9 -14 9 -34 0 -41 -19 -64 -14 -96 17 -65 66 -14 191 78 191
33 0 33 0 33 50 0 35 -5 52 -16 58 -28 15 -6 32 42 32 l44 0 0 -160z m-2279
121 c23 -23 29 -38 29 -71 0 -63 -50 -100 -136 -100 -23 0 -24 -4 -24 -60 0
-53 2 -60 20 -60 11 0 20 -4 20 -10 0 -6 -32 -10 -75 -10 -43 0 -75 4 -75 10
0 6 6 10 14 10 10 0 15 26 21 103 9 132 0 197 -26 197 -11 0 -19 5 -19 10 0 6
44 10 111 10 109 0 111 0 140 -29z m-1273 7 c7 -7 12 -18 12 -25 0 -19 -31
-16 -45 4 -18 24 -43 9 -65 -39 -25 -55 -25 -68 0 -68 11 0 20 -4 20 -10 0 -5
-11 -10 -24 -10 -22 0 -27 -9 -51 -87 -48 -155 -92 -223 -147 -223 -31 0 -48
24 -30 42 9 9 17 6 33 -7 20 -19 21 -19 39 5 15 20 90 239 90 263 0 4 -9 7
-20 7 -11 0 -20 5 -20 10 0 6 10 10 23 10 17 0 29 13 51 55 38 73 100 107 134
73z m692 -2 c0 -7 -12 -40 -26 -72 -48 -108 -48 -110 -13 -74 22 22 39 30 58
28 23 -3 26 -8 28 -48 3 -53 -28 -123 -70 -154 -26 -19 -28 -19 -44 -3 -23 23
-3 47 22 27 14 -12 18 -11 26 1 12 19 39 108 39 131 0 53 -93 -25 -126 -106
-12 -30 -25 -46 -36 -46 -19 0 -23 -12 41 148 12 28 30 75 41 103 l20 51 -20
5 c-30 8 -13 23 26 23 22 0 34 -5 34 -14z m1379 -20 c13 -16 5 -42 -15 -50
-19 -7 -54 10 -54 27 0 33 48 49 69 23z m-1554 -66 c-20 -38 -19 -40 12 -40
32 0 20 -17 -16 -22 -19 -2 -30 -17 -52 -68 -15 -36 -25 -67 -23 -69 2 -2 15
2 29 9 14 7 27 11 31 8 7 -7 -44 -43 -74 -52 -36 -12 -37 15 -3 92 36 81 36
82 16 82 -8 0 -15 5 -15 10 0 6 11 10 25 10 16 0 25 6 25 15 0 17 35 55 50 55
6 0 4 -13 -5 -30z m1565 -115 c0 -78 3 -95 15 -95 8 0 15 -4 15 -10 0 -6 -28
-10 -65 -10 -37 0 -65 4 -65 10 0 6 7 10 15 10 22 0 21 117 -1 141 -16 17 -15
19 7 27 13 5 31 12 39 15 38 14 40 9 40 -88z m205 83 c35 -16 35 -58 0 -58
-14 0 -25 4 -25 9 0 16 -31 42 -41 35 -21 -13 -29 -56 -19 -95 13 -49 47 -68
85 -51 33 15 35 15 35 -2 0 -22 -68 -49 -109 -42 -51 8 -81 45 -81 103 0 38 5
50 34 79 37 37 74 44 121 22z m741 -22 c39 -39 46 -89 18 -132 -63 -95 -203
-57 -204 55 0 36 6 49 34 77 28 28 42 34 76 34 34 0 48 -6 76 -34z m249 3 c30
-26 35 -38 35 -73 0 -48 -19 -80 -60 -101 -49 -25 -88 -19 -126 19 -102 102
42 250 151 155z m-3200 -3 c29 -44 -14 -148 -71 -172 -63 -26 -98 19 -75 96
25 85 111 129 146 76z m121 -8 l-6 -33 26 33 c30 38 67 44 62 10 -2 -17 -9
-22 -25 -20 -27 4 -67 -46 -89 -112 -9 -25 -22 -46 -30 -46 -18 0 -18 -1 7 81
24 78 22 101 -4 74 -10 -9 -21 -14 -25 -10 -10 10 46 55 70 55 18 0 20 -4 14
-32z m719 21 c18 -27 -6 -61 -61 -85 -50 -22 -55 -27 -52 -52 4 -32 37 -42 58
-17 16 19 31 20 24 1 -3 -8 -21 -22 -40 -31 -72 -34 -100 34 -49 121 34 58
102 94 120 63z m505 -67 c0 -85 11 -108 42 -91 26 14 27 135 1 155 -16 12 -11
13 35 14 l52 0 0 -85 c0 -69 3 -85 15 -85 29 0 15 -19 -22 -29 -49 -14 -53
-14 -53 3 0 13 -4 13 -27 0 -71 -36 -113 2 -113 104 0 50 -4 68 -17 78 -16 12
-11 13 35 14 l52 0 0 -78z"/>
<path d="M298 994 c-12 -11 -9 -253 2 -275 24 -43 112 -10 140 53 33 73 21
147 -33 196 -25 24 -96 40 -109 26z"/>
<path d="M663 772 c-21 -14 -20 -62 2 -62 10 0 15 11 15 35 0 38 0 38 -17 27z"/>
<path d="M1042 768 c-7 -7 -12 -23 -12 -36 0 -38 34 -24 38 16 3 33 -6 40 -26
20z"/>
<path d="M1986 855 c-24 -24 -20 -35 14 -35 32 0 40 19 16 39 -11 9 -18 8 -30
-4z"/>
<path d="M2680 851 c-14 -28 -13 -31 13 -31 31 0 38 9 26 31 -13 24 -26 24
-39 0z"/>
<path d="M2080 301 c0 -78 14 -100 49 -81 21 11 26 30 22 85 -4 44 -19 65 -46
65 -24 0 -25 -2 -25 -69z"/>
<path d="M3820 375 c-32 -39 -2 -145 40 -145 18 0 20 7 20 70 0 58 -3 71 -19
80 -25 13 -26 13 -41 -5z"/>
<path d="M1540 440 c0 -72 2 -80 19 -80 36 0 63 33 65 77 1 48 -25 83 -61 83
-22 0 -23 -3 -23 -80z"/>
<path d="M3325 374 c-10 -10 -15 -34 -15 -69 0 -69 7 -85 36 -85 18 0 25 7 30
28 3 15 8 33 10 41 7 21 -15 88 -31 95 -8 3 -21 -2 -30 -10z"/>
<path d="M3580 380 c-18 -11 -26 -111 -10 -139 17 -32 51 -24 62 14 20 69 -14
149 -52 125z"/>
<path d="M385 335 c-31 -40 -46 -115 -24 -115 38 0 99 80 99 130 0 34 -45 26
-75 -15z"/>
<path d="M1252 364 c-31 -21 -48 -54 -28 -54 25 0 73 47 61 59 -8 8 -17 6 -33
-5z"/>
</g>
</svg>
