<?xml version="1.0" standalone="no"?>
<!DOCTYPE svg PUBLIC "-//W3C//DTD SVG 20010904//EN"
 "http://www.w3.org/TR/2001/REC-SVG-20010904/DTD/svg10.dtd">
<svg version="1.0" xmlns="http://www.w3.org/2000/svg"
 width="385.000000pt" height="385.000000pt" viewBox="0 0 385.000000 385.000000"
 preserveAspectRatio="xMidYMid meet">

<g transform="translate(0.000000,385.000000) scale(0.100000,-0.100000)"
fill="#000000" stroke="none">
<path d="M980 3833 c-14 -9 -30 -22 -36 -28 -6 -5 -32 -28 -59 -50 -26 -22
-53 -46 -61 -52 -7 -7 -15 -13 -19 -13 -3 0 -16 -10 -29 -22 -12 -13 -37 -34
-55 -48 -31 -23 -44 -34 -114 -96 -15 -13 -31 -24 -35 -24 -4 0 -14 -9 -22
-20 -8 -11 -18 -20 -23 -20 -4 0 -18 -10 -31 -22 -13 -13 -40 -36 -61 -53 -20
-16 -45 -37 -55 -45 -9 -8 -32 -26 -50 -40 -34 -26 -46 -36 -122 -102 l-48
-40 0 -594 0 -593 37 -35 c34 -32 36 -36 16 -36 -56 0 -53 34 -53 -539 0 -447
-2 -530 -15 -555 -8 -15 -15 -38 -15 -50 0 -11 -7 -30 -15 -40 -21 -28 -21
-159 0 -176 8 -7 15 -21 15 -31 0 -11 4 -19 8 -19 5 0 17 -8 28 -18 24 -23 97
-52 130 -52 36 0 109 36 131 64 11 13 28 26 39 28 32 5 31 -76 -1 -143 -40
-87 -105 -142 -105 -91 0 10 -14 33 -31 50 -28 29 -37 32 -90 32 -77 0 -88 -6
-174 -101 -8 -9 -15 -21 -15 -27 0 -7 -4 -12 -9 -12 -5 0 -12 -13 -16 -30 -4
-16 -11 -32 -16 -35 -13 -9 -11 -54 4 -70 29 -33 37 -45 37 -55 0 -5 7 -10 15
-10 8 0 15 -4 15 -10 0 -6 60 -10 161 -10 158 0 163 1 218 29 104 53 126 66
142 83 9 10 21 18 28 18 6 0 11 5 11 10 0 6 7 10 15 10 8 0 15 3 15 8 0 10
107 122 117 122 5 0 18 -8 29 -18 10 -9 41 -35 69 -57 27 -22 63 -52 80 -67
l30 -28 233 0 c127 0 232 -4 232 -8 0 -13 89 -35 142 -33 48 1 103 13 140 32
10 5 297 9 638 9 407 0 620 3 620 10 0 6 7 10 15 10 8 0 15 5 15 10 0 6 5 10
10 10 6 0 21 10 34 23 13 12 41 36 62 54 22 17 49 41 61 52 12 12 25 21 28 21
3 0 16 10 29 23 12 12 36 32 53 45 47 36 94 75 119 100 13 12 26 22 30 22 4 0
14 8 23 18 27 30 74 58 121 71 76 22 170 84 170 113 0 4 7 8 15 8 8 0 15 9 15
20 0 11 4 20 10 20 5 0 12 11 16 25 3 14 10 25 15 25 5 0 9 251 9 589 l0 589
-40 33 c-52 43 -52 59 0 59 l40 0 0 546 c0 565 -1 574 -39 574 -6 0 -11 5 -11
10 0 6 -4 10 -9 10 -5 0 -27 17 -49 38 -21 20 -54 48 -72 62 -18 14 -39 31
-46 38 -7 6 -15 12 -19 12 -3 0 -18 12 -33 28 -31 30 -83 74 -132 112 -18 14
-39 31 -46 38 -7 6 -15 12 -19 12 -3 0 -16 10 -29 23 -13 12 -41 36 -61 52
-21 17 -48 40 -61 53 -13 12 -27 22 -31 22 -5 0 -15 9 -23 20 -8 11 -18 20
-22 20 -8 0 -27 15 -91 73 -23 20 -52 40 -64 43 -32 9 -745 -1 -766 -10 -9 -5
-20 -19 -23 -32 -3 -13 -10 -24 -15 -24 -5 0 -9 -6 -9 -14 0 -8 -7 -17 -16
-20 -8 -3 -13 -10 -10 -15 8 -12 -69 -21 -176 -21 -107 0 -155 16 -171 60 -6
16 -15 30 -19 30 -4 0 -8 6 -8 14 0 7 -10 17 -22 21 -13 5 -187 10 -388 12
-337 4 -367 3 -390 -14z m1918 -154 c2 -5 8 -9 13 -9 9 0 38 -21 75 -57 13
-13 26 -23 29 -23 3 0 21 -16 39 -35 19 -19 38 -35 43 -35 5 0 15 -9 23 -20 8
-11 18 -20 22 -20 8 0 45 -30 100 -82 16 -16 33 -28 37 -28 3 0 13 -9 21 -20
8 -11 19 -20 25 -20 6 0 17 -9 25 -20 8 -11 18 -20 23 -20 4 0 20 -12 35 -27
15 -16 47 -44 71 -63 24 -19 49 -41 56 -47 8 -7 16 -13 19 -13 4 0 20 -13 36
-29 l30 -28 0 -415 c0 -309 -3 -417 -12 -426 -8 -8 -65 -12 -190 -12 -98 0
-178 -3 -178 -8 0 -4 12 -16 27 -27 36 -26 117 -98 121 -107 2 -5 9 -8 16 -8
6 0 18 -9 26 -20 8 -11 18 -20 23 -20 8 0 59 -44 120 -102 16 -16 33 -28 38
-28 5 0 9 -135 9 -329 l0 -329 -115 0 -115 -1 0 291 0 291 -30 28 c-16 16 -32
29 -36 29 -3 0 -11 6 -18 13 -7 6 -28 23 -46 37 -18 14 -51 42 -72 63 -22 20
-42 37 -45 37 -2 0 -10 6 -17 13 -7 6 -28 23 -46 37 -18 14 -39 31 -46 38 -7
6 -15 12 -17 12 -3 0 -22 17 -44 38 -21 20 -54 48 -73 62 -18 14 -39 31 -46
38 -7 6 -18 12 -24 12 -6 0 -10 6 -8 13 4 9 73 13 284 17 l279 5 3 339 c2 253
-1 342 -10 353 -6 8 -71 62 -142 121 -72 58 -138 113 -146 122 -8 8 -31 27
-50 42 -19 15 -47 37 -61 50 -15 13 -41 34 -59 48 -18 14 -38 30 -44 35 -6 6
-27 21 -46 35 l-35 26 -804 -2 -804 -1 -41 -36 c-60 -53 -80 -69 -116 -97 -42
-32 -99 -80 -122 -102 -10 -10 -22 -18 -26 -18 -4 0 -14 -9 -22 -20 -8 -11
-19 -20 -25 -20 -6 0 -17 -9 -25 -20 -8 -11 -18 -20 -22 -20 -8 0 -49 -34 -99
-82 -16 -16 -31 -28 -35 -28 -4 0 -15 -10 -25 -22 -18 -20 -19 -46 -19 -457 0
-240 -3 -459 -6 -488 -6 -49 -5 -53 28 -85 52 -51 97 -88 106 -88 4 0 14 -9
22 -20 8 -11 19 -20 25 -20 6 0 17 -9 25 -20 8 -11 18 -20 23 -20 4 0 20 -12
36 -28 43 -41 91 -82 96 -82 6 0 40 -28 71 -57 13 -13 26 -23 29 -23 3 0 21
-16 39 -35 19 -19 37 -35 41 -35 8 0 35 -26 35 -34 0 -3 -129 -7 -286 -8
l-286 -3 1 -127 c2 -129 -6 -168 -34 -168 -8 0 -15 -4 -15 -10 0 -5 -11 -10
-25 -10 -14 0 -25 -4 -25 -10 0 -5 -9 -10 -20 -10 -11 0 -20 -4 -20 -10 0 -5
-6 -10 -13 -10 -7 0 -24 -10 -36 -21 -19 -18 -25 -19 -32 -8 -10 16 -13 538
-3 563 5 14 32 16 190 16 101 0 184 3 184 6 0 7 -17 23 -62 56 -20 15 -42 33
-50 41 -7 7 -35 30 -63 52 -27 22 -59 49 -71 60 -11 11 -35 31 -54 45 -18 14
-43 34 -56 45 l-24 21 0 518 0 519 30 28 c16 16 32 29 36 29 3 0 11 6 19 13 7
6 35 30 60 52 26 22 58 50 71 63 13 12 25 22 28 22 6 0 30 19 70 55 12 11 41
36 65 55 24 19 48 40 55 45 27 24 175 152 197 170 13 11 37 31 53 45 l30 25
390 5 c519 7 1410 -1 1414 -11z m-618 -976 c28 -20 56 -42 75 -60 8 -7 19 -13
25 -13 7 0 10 -48 8 -157 l-3 -158 -322 -3 -322 -2 -48 36 c-81 62 -83 66 -83
171 0 103 -8 88 89 173 l35 30 261 0 c231 0 263 -2 285 -17z m21 -1193 c14
-14 40 -36 57 -49 32 -24 32 -24 32 -117 0 -105 -6 -114 -74 -114 -20 0 -36
-4 -36 -10 0 -5 -9 -10 -20 -10 -18 0 -70 -19 -80 -30 -28 -29 -163 -43 -187
-19 -15 15 -132 14 -146 0 -20 -20 -111 -13 -135 9 -12 11 -24 20 -27 20 -3 0
-19 12 -35 27 l-30 26 0 149 0 149 328 -3 328 -3 25 -25z m-1361 -332 c0 -25
-22 -91 -33 -102 -46 -45 -73 -54 -172 -59 -141 -8 -221 -24 -276 -57 -45 -27
-93 -74 -114 -113 -11 -20 -23 -37 -27 -37 -5 0 -8 -8 -8 -17 0 -9 -5 -31 -11
-48 -10 -26 -9 -36 6 -58 10 -15 27 -27 39 -27 22 0 80 -39 59 -40 -7 0 -13
-7 -13 -15 0 -26 -75 -95 -104 -95 -14 0 -26 5 -26 10 0 6 -6 10 -13 10 -21 0
-39 57 -33 108 9 86 18 121 32 133 8 6 14 17 14 24 0 19 30 75 41 75 5 0 9 5
9 11 0 20 117 159 135 159 4 0 29 19 59 45 24 21 115 65 134 65 12 0 24 5 27
10 3 6 50 10 105 10 55 0 102 4 105 10 9 15 65 12 65 -2z m290 -40 c-1 -85
-40 -118 -139 -118 -54 0 -61 2 -61 19 0 11 5 23 10 26 6 3 10 23 10 45 0 43
12 51 62 44 21 -2 46 3 68 15 19 10 38 19 43 20 4 1 7 -23 7 -51z m1822 30 c3
-7 1 -44 -4 -83 -5 -38 -11 -112 -14 -163 l-6 -92 32 -30 c37 -35 51 -37 87
-13 34 23 113 96 113 106 0 4 9 18 21 30 11 12 25 31 30 42 5 11 13 27 17 35
25 44 32 62 32 86 0 14 5 34 10 44 20 37 170 58 170 24 0 -35 38 -92 107 -162
77 -77 80 -85 74 -176 -3 -47 -50 -102 -116 -136 -38 -19 -60 -23 -133 -23
-76 0 -94 4 -125 24 -29 19 -37 30 -37 55 0 19 6 34 15 38 8 3 15 12 15 21 0
11 10 15 35 15 19 0 35 -3 35 -7 0 -5 16 -25 35 -45 30 -33 40 -38 79 -38 36
0 50 5 71 27 29 32 32 55 10 77 -8 8 -15 19 -15 23 0 5 -30 36 -67 69 -37 32
-74 66 -81 75 -18 20 -52 13 -52 -11 0 -10 -7 -23 -15 -30 -8 -7 -15 -19 -15
-26 0 -8 -4 -14 -10 -14 -5 0 -10 -9 -10 -20 0 -11 -5 -20 -10 -20 -6 0 -13
-7 -17 -16 -3 -8 -36 -45 -72 -82 -66 -66 -136 -112 -171 -112 -11 0 -22 -5
-25 -10 -8 -13 -52 -13 -60 0 -3 6 -16 10 -27 10 -28 0 -76 55 -89 102 -11 42
3 145 24 179 16 26 7 30 -39 18 -35 -10 -83 -51 -84 -72 0 -7 -9 -20 -37 -52
-7 -7 -13 -16 -13 -20 0 -6 -104 -110 -138 -137 -12 -10 -27 -18 -32 -18 -6 0
-10 -4 -10 -8 0 -5 -19 -14 -42 -21 -24 -7 -53 -17 -66 -22 -31 -12 -159 -11
-167 1 -3 6 -17 10 -31 10 -13 0 -24 5 -24 10 0 6 -7 10 -15 10 -8 0 -15 5
-15 10 0 6 -6 10 -13 10 -7 0 -19 9 -27 20 -8 11 -19 20 -25 20 -6 0 -17 -9
-25 -20 -8 -11 -19 -20 -25 -20 -6 0 -17 -9 -25 -20 -8 -11 -20 -20 -27 -20
-7 0 -13 -3 -13 -8 0 -4 -16 -16 -36 -27 -24 -13 -37 -28 -41 -47 -3 -16 -10
-31 -14 -34 -5 -3 -9 -19 -9 -35 0 -35 -48 -142 -82 -181 -13 -15 -30 -35 -38
-45 -23 -28 -97 -73 -119 -73 -11 0 -23 -4 -26 -10 -10 -17 -65 -11 -104 11
-23 12 -43 34 -53 57 -14 34 -14 40 1 79 18 47 103 143 127 143 2 0 14 9 26
20 12 11 30 20 40 20 10 0 18 5 18 10 0 6 5 10 11 10 22 0 39 30 39 69 0 23
-3 41 -6 41 -3 0 -33 -28 -67 -63 -74 -75 -132 -97 -191 -76 -20 7 -36 17 -36
21 0 4 -6 8 -13 8 -7 0 -18 9 -25 20 -16 26 -34 25 -52 -1 -24 -34 -102 -112
-142 -142 -49 -36 -115 -38 -149 -3 -52 54 -72 183 -44 289 8 32 15 78 15 102
0 51 17 95 37 95 7 0 13 5 13 10 0 6 6 10 13 10 6 0 35 11 62 25 70 34 78 33
72 -12 -14 -93 -28 -183 -38 -249 -10 -61 -9 -75 6 -103 14 -29 20 -32 45 -27
30 5 70 34 70 49 0 4 11 20 25 35 20 21 25 37 25 77 0 49 15 105 42 155 36 68
105 144 140 156 10 3 18 10 18 15 0 5 9 9 19 9 11 0 23 5 26 10 9 14 121 13
144 -2 15 -9 28 -9 60 2 23 7 41 17 41 22 0 4 7 8 15 8 8 0 15 5 15 10 0 6 9
10 20 10 19 0 20 -7 22 -162 2 -148 3 -185 7 -255 1 -14 7 -23 18 -23 20 0
133 114 133 135 0 8 5 15 11 15 7 0 9 9 6 21 -7 27 11 143 24 147 5 2 9 12 9
22 0 10 25 43 56 73 90 89 201 119 282 78 60 -31 77 -56 76 -114 0 -46 -4 -53
-45 -88 -24 -21 -59 -44 -76 -51 -18 -7 -33 -16 -33 -20 0 -4 -11 -8 -25 -8
-14 0 -25 -4 -25 -10 0 -5 -11 -10 -25 -10 -18 0 -25 -5 -25 -20 0 -11 5 -20
10 -20 6 0 10 -6 10 -13 0 -8 11 -20 25 -27 14 -7 25 -17 25 -22 0 -4 36 -8
81 -8 68 0 86 4 112 22 37 27 82 71 117 117 14 18 31 39 38 46 20 22 14 39
-23 59 -26 14 -36 28 -41 52 -16 88 28 154 103 154 60 0 73 -15 73 -89 0 -58
1 -61 25 -61 14 0 25 5 25 10 0 6 6 10 13 10 15 0 67 44 67 57 0 6 7 16 15 23
8 7 15 21 15 30 0 26 64 41 72 18z m-2303 -335 c18 -143 24 -324 12 -336 -6
-6 -11 -18 -11 -26 0 -9 -7 -29 -15 -45 -8 -15 -15 -35 -15 -42 0 -8 -7 -17
-15 -20 -8 -4 -15 -12 -15 -20 0 -21 -177 -194 -198 -194 -15 0 -62 -25 -62
-32 0 -5 -7 -8 -15 -8 -8 0 -24 -5 -35 -10 -11 -6 -29 -14 -40 -20 -26 -13
-123 -24 -152 -17 -13 4 -34 16 -47 28 -18 17 -22 28 -16 56 6 32 17 50 72
110 33 37 57 27 61 -25 2 -23 7 -42 13 -42 5 0 9 -8 9 -19 0 -11 9 -21 23 -25
24 -6 99 3 107 13 3 4 21 18 40 31 45 31 60 46 60 59 0 6 5 11 10 11 6 0 14 8
17 18 4 9 13 23 20 30 7 7 13 22 13 33 0 10 5 19 10 19 13 0 13 203 0 216 -6
6 -11 51 -13 100 -1 68 2 98 16 126 23 49 105 128 132 128 19 0 22 -9 34 -97z
m2512 -214 c18 -9 17 -12 -20 -50 -22 -21 -44 -39 -48 -39 -5 0 -15 -9 -23
-20 -8 -11 -18 -20 -23 -20 -5 0 -14 -6 -21 -12 -7 -7 -33 -29 -57 -48 -23
-19 -55 -47 -71 -62 -15 -16 -32 -28 -38 -28 -5 0 -10 -4 -10 -8 0 -4 -13 -15
-29 -25 -26 -15 -73 -17 -494 -17 -331 0 -468 3 -473 11 -3 6 -3 14 2 18 5 3
14 15 20 26 11 19 24 20 421 25 l410 5 34 26 c19 15 67 54 107 88 53 44 82 61
103 61 16 0 29 5 29 10 0 6 9 10 20 10 20 0 62 17 110 45 30 18 27 17 51 4z
m-2363 -94 c-2 -30 -7 -56 -13 -58 -13 -3 -18 47 -10 102 10 63 27 30 23 -44z
m482 -162 c0 -4 -5 -22 -12 -40 -11 -29 -16 -33 -50 -33 -21 0 -41 0 -45 0
-19 0 -5 21 32 49 37 28 75 40 75 24z"/>
<path d="M2284 1058 c-51 -60 -50 -188 2 -188 13 0 24 5 24 10 0 6 6 10 13 10
15 1 58 39 75 68 14 25 16 82 3 82 -5 0 -11 9 -14 20 -8 30 -76 28 -103 -2z"/>
<path d="M1650 987 c-35 -17 -60 -44 -87 -94 -19 -37 -23 -59 -23 -135 0 -84
2 -92 26 -114 30 -29 84 -32 115 -6 42 35 61 91 66 199 l6 102 -31 30 c-34 34
-36 35 -72 18z"/>
<path d="M1680 435 c-7 -8 -16 -15 -21 -15 -11 0 -43 -26 -85 -70 -28 -28 -34
-42 -34 -77 0 -32 5 -45 19 -53 72 -38 151 33 164 145 3 22 8 50 12 63 6 19 4
22 -18 22 -13 0 -30 -7 -37 -15z"/>
</g>
</svg>
