<?xml version="1.0" standalone="no"?>
<!DOCTYPE svg PUBLIC "-//W3C//DTD SVG 20010904//EN"
 "http://www.w3.org/TR/2001/REC-SVG-20010904/DTD/svg10.dtd">
<svg version="1.0" xmlns="http://www.w3.org/2000/svg"
 width="440.000000pt" height="440.000000pt" viewBox="0 0 440.000000 440.000000"
 preserveAspectRatio="xMidYMid meet">

<g transform="translate(0.000000,440.000000) scale(0.100000,-0.100000)"
fill="#000000" stroke="none">
<path d="M0 2200 l0 -2200 2200 0 2200 0 0 2200 0 2200 -2200 0 -2200 0 0
-2200z m4220 2046 c0 -3 -50 -48 -112 -101 l-112 -96 -91 3 -90 3 -3 63 -3 62
-909 0 -910 0 0 -90 0 -90 275 0 275 0 0 -65 0 -65 621 -2 620 -3 -357 -305
c-237 -202 -351 -306 -340 -308 10 -2 25 3 34 11 9 7 173 147 364 310 l346
297 117 0 116 0 -2 98 -2 97 89 77 c49 43 92 78 97 78 4 0 7 -436 7 -970 l0
-970 -430 0 -430 0 0 -110 0 -110 155 0 c85 0 155 -3 156 -7 1 -5 1 -38 2 -75
l1 -68 273 0 273 0 0 -880 0 -880 -2050 0 -2050 0 0 935 0 935 339 0 c216 0
342 4 346 10 3 6 48 10 100 10 l94 0 4 -82 3 -83 2 88 2 87 -105 0 -105 0 0
75 0 75 -340 0 -340 0 0 1025 0 1025 2035 0 c1119 0 2035 -2 2035 -4z"/>
<path d="M796 3393 c172 -297 578 -1004 591 -1027 8 -15 33 21 150 225 78 134
240 416 362 627 122 211 221 385 221 388 0 2 -326 4 -725 4 l-724 0 125 -217z"/>
<path d="M2920 3045 l0 -75 510 0 510 0 0 75 0 75 -510 0 -510 0 0 -75z"/>
<path d="M2547 2808 l-311 -267 -25 18 c-104 72 -251 43 -316 -63 -52 -85 -36
-205 37 -273 58 -55 167 -69 248 -32 l45 20 492 -498 c400 -404 491 -502 487
-518 -26 -86 -9 -156 46 -188 35 -21 102 -22 140 -2 81 42 81 188 0 230 -35
18 -103 20 -133 3 -20 -10 -56 24 -519 492 l-496 504 19 28 c11 15 25 52 31
81 10 45 9 61 -6 103 -10 27 -18 56 -19 65 -1 10 114 116 303 279 369 317 339
289 311 287 -14 -1 -145 -106 -334 -269z m-374 -260 c20 -10 37 -21 37 -23 0
-3 -15 -18 -32 -34 -23 -21 -30 -33 -22 -40 7 -8 19 -2 39 19 16 16 32 30 36
30 13 0 39 -80 39 -121 0 -39 -32 -119 -48 -119 -5 0 -21 14 -37 30 -19 20
-32 27 -39 20 -7 -7 1 -21 23 -44 l33 -34 -29 -15 c-100 -52 -213 -15 -265 86
-41 81 -4 203 74 243 69 36 122 37 191 2z"/>
<path d="M988 1883 c6 -2 18 -2 25 0 6 3 1 5 -13 5 -14 0 -19 -2 -12 -5z"/>
<path d="M360 1320 l0 -90 761 0 762 0 -7 31 c-3 17 -6 58 -6 90 l0 59 -755 0
-755 0 0 -90z"/>
<path d="M1032 1093 c247 -2 649 -2 895 0 247 1 45 2 -447 2 -492 0 -694 -1
-448 -2z"/>
<path d="M2583 1093 c15 -2 39 -2 55 0 15 2 2 4 -28 4 -30 0 -43 -2 -27 -4z"/>
<path d="M338 771 c10 -6 13 -29 10 -85 l-3 -76 35 0 c23 0 30 3 22 9 -10 6
-13 29 -10 85 l3 76 -35 0 c-23 0 -30 -3 -22 -9z"/>
<path d="M426 771 c26 -12 54 -49 54 -73 0 -29 -21 -65 -44 -76 -21 -11 -21
-11 2 -11 35 -1 72 42 72 82 0 45 -26 76 -70 82 -28 4 -31 4 -14 -4z"/>
<path d="M910 760 c-16 -29 -4 -56 31 -70 40 -17 54 -44 33 -64 -12 -13 -12
-16 -2 -16 22 0 38 22 38 52 0 22 -8 32 -40 48 -40 20 -54 53 -27 63 7 3 5 6
-5 6 -10 1 -22 -8 -28 -19z"/>
<path d="M969 771 c7 -5 17 -15 22 -22 6 -10 9 -8 9 9 0 16 -6 22 -22 22 -17
0 -19 -3 -9 -9z"/>
<path d="M1153 748 c2 -7 10 -13 17 -13 7 0 15 6 18 13 2 7 -5 12 -18 12 -13
0 -20 -5 -17 -12z"/>
<path d="M664 720 c-5 -5 -7 -31 -4 -57 5 -45 7 -48 35 -50 17 -1 22 1 13 3
-13 4 -18 16 -18 44 0 28 5 40 18 43 16 4 16 5 0 6 -10 0 -18 6 -18 11 0 13
-13 13 -26 0z"/>
<path d="M552 698 c-15 -15 -16 -28 -2 -28 6 0 10 7 10 15 0 8 6 15 14 15 9 0
14 -12 14 -34 0 -44 8 -56 35 -56 14 0 18 3 10 8 -6 4 -13 25 -15 47 -3 34 -7
40 -28 43 -14 2 -31 -3 -38 -10z"/>
<path d="M753 704 c-7 -3 -13 -13 -13 -22 1 -15 2 -15 14 1 7 9 19 17 25 17 7
0 11 -8 10 -17 -4 -49 2 -73 19 -73 15 0 17 6 12 48 -4 41 -8 47 -30 49 -14 1
-31 -1 -37 -3z"/>
<path d="M1056 694 c-17 -16 -20 -41 -10 -68 7 -18 69 -23 79 -6 3 6 -1 7 -10
4 -23 -9 -45 14 -45 47 0 30 17 38 38 17 13 -13 27 -5 17 11 -9 16 -51 13 -69
-5z"/>
<path d="M1165 702 c-5 -4 -10 -26 -10 -49 0 -34 4 -43 18 -43 14 0 17 9 17
50 0 49 -5 57 -25 42z"/>
<path d="M1232 698 c-13 -13 -16 -47 -6 -72 7 -18 69 -22 79 -6 4 7 -2 9 -18
5 -18 -5 -28 -2 -34 10 -13 23 -4 65 14 65 9 0 13 -6 9 -15 -4 -10 1 -15 14
-15 11 0 20 4 20 8 0 15 -24 32 -45 32 -12 0 -26 -5 -33 -12z"/>
<path d="M1343 701 c-4 -3 -8 -25 -8 -48 0 -34 4 -43 17 -43 13 0 18 10 20 43
2 29 8 42 18 42 11 0 15 -11 15 -43 0 -33 4 -42 18 -42 13 0 17 8 17 38 0 20
-4 43 -8 49 -8 12 -74 15 -89 4z"/>
<path d="M1480 690 c-6 -12 -10 -33 -8 -48 2 -23 8 -28 37 -30 18 -2 38 1 43
6 6 6 0 8 -16 5 -21 -4 -28 0 -36 21 -5 14 -7 33 -4 41 7 18 31 20 36 3 2 -6
10 -8 16 -4 19 12 4 26 -28 26 -19 0 -33 -7 -40 -20z"/>
<path d="M1591 696 c-7 -8 -11 -30 -9 -48 3 -28 7 -33 32 -36 16 -2 33 1 39 7
7 7 4 8 -10 5 -11 -3 -25 1 -31 9 -17 20 -9 61 13 66 13 2 16 -1 12 -13 -5
-11 -1 -16 14 -16 17 0 18 3 9 20 -12 23 -52 27 -69 6z"/>
<path d="M552 648 c-18 -18 -15 -38 6 -38 12 0 17 8 17 25 0 28 -5 31 -23 13z"/>
<path d="M753 653 c-23 -9 -15 -43 10 -43 16 0 19 3 8 9 -8 5 -11 16 -8 25 4
9 5 16 4 15 -1 0 -8 -3 -14 -6z"/>
<path d="M900 640 c0 -10 9 -22 21 -25 28 -9 29 -4 2 22 -21 21 -23 21 -23 3z"/>
<path d="M2250 562 c-12 -2 -15 -12 -12 -37 4 -29 1 -35 -15 -35 -41 0 -70
-64 -40 -88 6 -6 34 -10 61 -10 27 0 44 3 38 7 -6 4 -12 41 -14 86 -2 66 -6
80 -18 77z m-10 -122 c0 -46 -25 -57 -36 -15 -8 32 1 55 21 55 11 0 15 -11 15
-40z"/>
<path d="M998 548 c14 -14 16 -140 3 -154 -6 -5 2 -9 24 -9 21 0 30 4 25 10
-14 17 -11 155 3 155 36 0 51 -61 20 -79 -24 -14 2 -14 28 -1 26 14 24 55 -3
74 -27 19 -119 23 -100 4z"/>
<path d="M1281 551 c-9 -6 -10 -11 -2 -15 6 -4 11 -37 11 -77 0 -38 4 -69 9
-69 5 0 18 -3 28 -7 17 -7 17 -6 0 11 -15 16 -17 31 -14 92 5 75 0 85 -32 65z"/>
<path d="M1412 553 c-10 -4 -10 -8 -2 -19 7 -8 10 -40 8 -79 -3 -59 -1 -65 17
-65 19 0 20 6 17 85 -3 84 -7 91 -40 78z"/>
<path d="M1739 531 c-31 -31 -35 -53 -19 -96 10 -27 71 -60 93 -51 7 2 4 5 -5
5 -51 2 -77 90 -42 139 22 32 67 29 93 -5 l20 -28 -6 25 c-8 33 -20 40 -66 40
-29 0 -46 -7 -68 -29z"/>
<path d="M379 515 c-12 -19 -26 -35 -32 -35 -8 0 -8 -3 0 -8 10 -6 8 -24 -11
-78 -21 -61 -26 -69 -47 -66 -18 2 -21 0 -12 -9 6 -6 19 -9 28 -5 17 6 65 100
65 129 0 10 10 22 23 27 17 7 18 9 5 9 -21 1 -21 2 -6 36 9 21 17 25 36 20 15
-4 21 -2 17 5 -13 22 -46 9 -66 -25z"/>
<path d="M766 542 c8 -5 3 -28 -17 -80 -29 -78 -25 -89 13 -33 28 42 48 51 48
21 0 -32 -18 -60 -35 -54 -8 4 -15 1 -15 -5 0 -26 41 -8 59 26 25 49 -2 86
-37 51 -16 -16 -15 -8 3 35 19 47 19 47 -7 47 -14 0 -18 -3 -12 -8z"/>
<path d="M1490 524 c0 -17 22 -14 28 4 2 7 -3 12 -12 12 -9 0 -16 -7 -16 -16z"/>
<path d="M678 489 c-10 -10 -14 -19 -9 -19 6 0 3 -16 -5 -35 -23 -56 -16 -69
22 -40 19 15 19 15 0 8 -16 -5 -18 -3 -12 13 5 10 11 27 13 37 3 9 13 17 22
18 9 0 11 3 4 5 -7 3 -9 12 -6 20 7 20 -9 16 -29 -7z"/>
<path d="M1150 445 c8 -53 21 -70 47 -61 17 7 17 8 1 17 -13 7 -18 22 -18 49
0 32 -4 40 -18 40 -17 0 -18 -5 -12 -45z"/>
<path d="M1220 440 c3 -28 8 -50 13 -50 4 0 10 0 15 0 4 0 5 22 4 50 -3 39 -8
50 -21 50 -14 0 -16 -8 -11 -50z"/>
<path d="M1344 471 c12 -14 17 -30 14 -51 l-5 -31 21 20 c27 27 13 74 -24 80
-25 3 -25 3 -6 -18z"/>
<path d="M1495 484 c-16 -6 -6 -94 11 -94 10 0 14 14 14 50 0 48 -3 53 -25 44z"/>
<path d="M1567 472 c-41 -45 0 -105 55 -82 22 9 22 9 -3 9 -27 1 -39 17 -39
51 0 25 17 35 36 19 16 -13 30 -6 19 10 -10 17 -50 13 -68 -7z"/>
<path d="M1924 465 c-20 -31 -10 -63 23 -76 37 -14 73 12 73 51 0 51 -67 69
-96 25z m64 -8 c5 -25 -6 -67 -18 -67 -16 0 -32 41 -25 67 7 28 38 28 43 0z"/>
<path d="M2055 470 c-15 -16 -17 -26 -9 -47 18 -52 96 -46 102 8 6 53 -57 79
-93 39z m59 -6 c16 -41 -8 -86 -32 -62 -13 13 -16 60 -5 71 11 12 31 7 37 -9z"/>
<path d="M426 464 c-18 -17 -22 -69 -6 -79 30 -18 81 43 66 80 -7 20 -40 19
-60 -1z m49 -16 c-4 -13 -15 -32 -26 -42 -17 -18 -19 -18 -25 -3 -8 21 21 67
42 67 11 0 14 -6 9 -22z"/>
<path d="M515 470 c-3 -6 1 -7 9 -4 14 5 14 2 1 -35 -18 -51 -7 -53 20 -3 11
20 25 37 32 37 6 0 15 3 19 8 4 4 1 7 -7 7 -8 0 -20 -5 -27 -12 -9 -9 -12 -9
-12 0 0 14 -26 16 -35 2z"/>
<path d="M864 456 c-18 -28 -16 -67 5 -74 10 -3 11 2 6 18 -5 15 -2 26 6 31
11 7 11 9 1 9 -10 0 -10 5 -2 20 15 28 4 25 -16 -4z"/>
<path d="M904 461 c0 -15 3 -17 13 -9 7 6 13 14 13 19 0 5 -6 9 -13 9 -7 0
-13 -9 -13 -19z"/>
<path d="M1829 451 c8 -5 12 -19 9 -35 -3 -15 -1 -26 6 -26 20 0 33 15 38 43
5 25 3 27 -31 27 -25 0 -32 -3 -22 -9z"/>
</g>
</svg>
