<?xml version="1.0" standalone="no"?>
<!DOCTYPE svg PUBLIC "-//W3C//DTD SVG 20010904//EN"
 "http://www.w3.org/TR/2001/REC-SVG-20010904/DTD/svg10.dtd">
<svg version="1.0" xmlns="http://www.w3.org/2000/svg"
 width="309.000000pt" height="163.000000pt" viewBox="0 0 309.000000 163.000000"
 preserveAspectRatio="xMidYMid meet">

<g transform="translate(0.000000,163.000000) scale(0.100000,-0.100000)"
fill="#000000" stroke="none">
<path d="M790 1364 c0 -4 84 -164 186 -356 l186 -348 153 282 c86 161 166 297
185 316 57 56 99 62 417 62 156 0 283 -3 283 -6 0 -3 -12 -28 -28 -55 l-27
-49 -130 0 -130 0 -128 -245 -129 -245 -64 0 -65 0 17 33 c9 17 65 123 125
233 60 111 109 204 109 208 0 3 -56 6 -123 6 -122 0 -124 0 -135 -25 l-12 -25
85 0 c62 0 85 -3 85 -12 -1 -7 -56 -116 -125 -243 l-124 -230 127 -3 c112 -2
128 -1 140 15 7 10 67 120 133 245 l120 227 131 3 131 3 57 108 58 107 -351 0
c-212 0 -367 -4 -389 -10 -86 -24 -113 -58 -257 -323 -74 -136 -138 -244 -142
-240 -9 9 -279 511 -279 519 0 3 28 4 63 2 l62 -3 75 -137 c41 -76 77 -138 80
-138 3 0 39 62 81 138 l77 137 49 5 c28 3 61 14 78 27 l30 22 -97 1 -96 0 -58
-105 c-31 -58 -60 -105 -63 -105 -3 0 -31 47 -61 105 l-55 105 -127 0 c-71 0
-128 -3 -128 -6z"/>
<path d="M1423 420 c0 -41 2 -58 4 -37 2 20 2 54 0 75 -2 20 -4 3 -4 -38z"/>
<path d="M1450 379 c0 -106 -1 -111 -20 -106 -11 3 -18 1 -14 -4 3 -5 14 -9
25 -9 18 0 19 8 19 115 0 63 -2 115 -5 115 -3 0 -5 -50 -5 -111z"/>
<path d="M1971 474 c0 -11 3 -14 6 -6 3 7 2 16 -1 19 -3 4 -6 -2 -5 -13z"/>
<path d="M2141 474 c0 -11 3 -14 6 -6 3 7 2 16 -1 19 -3 4 -6 -2 -5 -13z"/>
<path d="M2192 378 l-2 -118 75 0 c71 0 75 1 74 23 -1 16 -2 18 -6 5 -4 -15
-16 -18 -68 -18 l-64 0 -4 113 -3 112 -2 -117z"/>
<path d="M2331 474 c0 -11 3 -14 6 -6 3 7 2 16 -1 19 -3 4 -6 -2 -5 -13z"/>
<path d="M2803 450 c0 -25 2 -35 4 -22 2 12 2 32 0 45 -2 12 -4 2 -4 -23z"/>
<path d="M770 476 c0 -2 8 -10 18 -17 15 -13 16 -12 3 4 -13 16 -21 21 -21 13z"/>
<path d="M1043 455 c0 -8 4 -12 9 -9 5 3 6 10 3 15 -9 13 -12 11 -12 -6z"/>
<path d="M2563 455 c0 -8 4 -12 9 -9 5 3 6 10 3 15 -9 13 -12 11 -12 -6z"/>
<path d="M2042 358 c-2 -96 -2 -98 21 -97 16 1 17 3 5 6 -14 4 -18 20 -21 96
l-3 92 -2 -97z"/>
<path d="M1280 351 c0 -67 -3 -80 -17 -84 -14 -4 -12 -5 5 -6 21 -1 22 2 22
84 0 47 -2 85 -5 85 -3 0 -5 -36 -5 -79z"/>
<path d="M852 375 c0 -16 2 -22 5 -12 2 9 2 23 0 30 -3 6 -5 -1 -5 -18z"/>
<path d="M2258 363 c12 -2 32 -2 45 0 12 2 2 4 -23 4 -25 0 -35 -2 -22 -4z"/>
<path d="M2708 363 c18 -2 45 -2 60 0 15 2 0 4 -33 4 -33 0 -45 -2 -27 -4z"/>
<path d="M1748 343 c7 -3 16 -2 19 1 4 3 -2 6 -13 5 -11 0 -14 -3 -6 -6z"/>
<path d="M2802 308 c-2 -40 1 -48 16 -48 11 0 13 3 5 8 -6 4 -13 25 -16 47 -4
40 -4 40 -5 -7z"/>
<path d="M1021 324 c0 -11 3 -14 6 -6 3 7 2 16 -1 19 -3 4 -6 -2 -5 -13z"/>
<path d="M1720 318 c0 -4 16 -8 35 -8 19 0 35 2 35 4 0 2 -16 6 -35 8 -19 2
-35 0 -35 -4z"/>
<path d="M347 268 c2 -5 10 -8 18 -8 8 0 16 3 18 8 3 4 -5 7 -18 7 -13 0 -21
-3 -18 -7z"/>
<path d="M1816 268 c7 -10 34 -10 34 0 0 4 -9 8 -19 8 -11 0 -17 -4 -15 -8z"/>
<path d="M538 263 c7 -3 16 -2 19 1 4 3 -2 6 -13 5 -11 0 -14 -3 -6 -6z"/>
<path d="M658 263 c7 -3 16 -2 19 1 4 3 -2 6 -13 5 -11 0 -14 -3 -6 -6z"/>
<path d="M1148 263 c7 -3 16 -2 19 1 4 3 -2 6 -13 5 -11 0 -14 -3 -6 -6z"/>
<path d="M1548 263 c7 -3 16 -2 19 1 4 3 -2 6 -13 5 -11 0 -14 -3 -6 -6z"/>
<path d="M1628 263 c7 -3 16 -2 19 1 4 3 -2 6 -13 5 -11 0 -14 -3 -6 -6z"/>
<path d="M2648 263 c7 -3 16 -2 19 1 4 3 -2 6 -13 5 -11 0 -14 -3 -6 -6z"/>
</g>
</svg>
